<svg xmlns="http://www.w3.org/2000/svg" viewBox="0 0 1280 720" width="1280" height="720">
      
    <defs>
      <linearGradient id="bgGrad" x1="0%" y1="0%" x2="50%" y2="100%">
        <stop offset="0%" stop-color="hsl(212.3404255319149, 60.31914893617021%, 8.574468085106382%)" />
        <stop offset="60%" stop-color="hsl(214.46808510638297, 60.31914893617021%, 4.042553191489361%)" />
        <stop offset="100%" stop-color="#040914" />
      </linearGradient>
      <radialGradient id="satelliteGlow" cx="50%" cy="50%" r="50%">
        <stop offset="0%" stop-color="#58c7ff" stop-opacity="0.8" />
        <stop offset="60%" stop-color="#58c7ff" stop-opacity="0.15" />
        <stop offset="100%" stop-color="#58c7ff" stop-opacity="0" />
      </radialGradient>
      <radialGradient id="stormGlow" cx="50%" cy="50%" r="50%">
        <stop offset="0%" stop-color="#48e09a" stop-opacity="0.6" />
        <stop offset="45%" stop-color="#58c7ff" stop-opacity="0.4" />
        <stop offset="85%" stop-color="#ff5e6c" stop-opacity="0.2" />
        <stop offset="100%" stop-color="#040914" stop-opacity="0" />
      </radialGradient>
      <radialGradient id="coreGlow" cx="50%" cy="50%" r="50%">
        <stop offset="0%" stop-color="#ffffff" stop-opacity="0.95" />
        <stop offset="25%" stop-color="#58c7ff" stop-opacity="0.85" />
        <stop offset="65%" stop-color="#145374" stop-opacity="0.4" />
        <stop offset="100%" stop-color="#040914" stop-opacity="0" />
      </radialGradient>
      <filter id="bloom" x="-30%" y="-30%" width="160%" height="160%">
        <feGaussianBlur stdDeviation="8" result="blur" />
        <feMerge>
          <feMergeNode in="blur" />
          <feMergeNode in="SourceGraphic" />
        </feMerge>
      </filter>
    </defs>
  
      <rect width="1280" height="720" fill="url(#bgGrad)" />

    <g opacity="0.18092198581560295">
      <circle cx="0.0" cy="91.9" r="1.8" fill="#c5e3f6" opacity="-0.19" /><circle cx="137.5" cy="185.2" r="1.1" fill="#c5e3f6" opacity="-0.26" /><circle cx="275.0" cy="278.5" r="1.1" fill="#c5e3f6" opacity="0.18" /><circle cx="412.5" cy="371.8" r="1.8" fill="#c5e3f6" opacity="0.73" /><circle cx="550.0" cy="465.1" r="1.1" fill="#c5e3f6" opacity="0.88" /><circle cx="687.5" cy="558.4" r="1.1" fill="#c5e3f6" opacity="0.50" /><circle cx="825.0" cy="651.7" r="1.8" fill="#c5e3f6" opacity="-0.07" /><circle cx="962.5" cy="25.0" r="1.1" fill="#c5e3f6" opacity="-0.30" /><circle cx="1100.0" cy="118.3" r="1.1" fill="#c5e3f6" opacity="0.02" /><circle cx="1237.5" cy="211.6" r="1.8" fill="#c5e3f6" opacity="0.60" /><circle cx="95.0" cy="304.9" r="1.1" fill="#c5e3f6" opacity="0.90" /><circle cx="232.5" cy="398.2" r="1.1" fill="#c5e3f6" opacity="0.65" /><circle cx="370.0" cy="491.5" r="1.8" fill="#c5e3f6" opacity="0.08" /><circle cx="507.5" cy="584.8" r="1.1" fill="#c5e3f6" opacity="-0.29" /><circle cx="645.0" cy="678.1" r="1.1" fill="#c5e3f6" opacity="-0.12" /><circle cx="782.5" cy="51.4" r="1.8" fill="#c5e3f6" opacity="0.44" /><circle cx="920.0" cy="144.7" r="1.1" fill="#c5e3f6" opacity="0.87" /><circle cx="1057.5" cy="238.0" r="1.1" fill="#c5e3f6" opacity="0.77" /><circle cx="1195.0" cy="331.3" r="1.8" fill="#c5e3f6" opacity="0.24" /><circle cx="52.5" cy="424.6" r="1.1" fill="#c5e3f6" opacity="-0.23" /><circle cx="190.0" cy="517.9" r="1.1" fill="#c5e3f6" opacity="-0.22" /><circle cx="327.5" cy="611.2" r="1.8" fill="#c5e3f6" opacity="0.27" /><circle cx="465.0" cy="704.5" r="1.1" fill="#c5e3f6" opacity="0.79" /><circle cx="602.5" cy="77.8" r="1.1" fill="#c5e3f6" opacity="0.86" />
    </g>
  

      <g opacity="1.00" transform="translate(640, 360)">
        <circle cx="0" cy="0" r="455.7862455197036" fill="url(#stormGlow)" />
        <g transform="rotate(330.89361702127655)">
          <!-- Spiral Radar Arms -->
          <path d="M 0 0 Q 60 40 120 120 Q 180 200 240 180" fill="none" stroke="#48e09a" stroke-width="6" stroke-linecap="round" opacity="0.75" />
          <path d="M 0 0 Q -60 -40 -120 -120 Q -180 -200 -240 -180" fill="none" stroke="#58c7ff" stroke-width="7" stroke-linecap="round" opacity="0.8" />
          <path d="M 0 0 Q 50 -70 140 -130 Q 220 -160 280 -100" fill="none" stroke="#ff5e6c" stroke-width="5" stroke-linecap="round" opacity="0.6" />
          <path d="M 0 0 Q -50 70 -140 130 Q -220 160 -280 100" fill="none" stroke="#ffd166" stroke-width="5" stroke-linecap="round" opacity="0.6" />
        </g>
        <!-- Concentric Radar Isobar Rings -->
        <circle cx="0" cy="0" r="159.52518593189623" fill="none" stroke="#58c7ff" stroke-width="1.5" stroke-dasharray="8 6" opacity="0.6" />
        <circle cx="0" cy="0" r="296.2610595878073" fill="none" stroke="#48e09a" stroke-width="1.5" stroke-dasharray="12 8" opacity="0.5" />
        <circle cx="0" cy="0" r="432.9969332437184" fill="none" stroke="#58c7ff" stroke-width="1" stroke-dasharray="4 4" opacity="0.4" />
        <!-- Lightning flash arc -->
        
          <path d="M -20 -80 L 10 -30 L -15 20 L 25 70" fill="none" stroke="#ffffff" stroke-width="3" filter="url(#bloom)" opacity="0.9" />
        
      </g>
    
    </svg>