<svg xmlns="http://www.w3.org/2000/svg" viewBox="0 0 1280 720" width="1280" height="720">
      
    <defs>
      <linearGradient id="bgGrad" x1="0%" y1="0%" x2="50%" y2="100%">
        <stop offset="0%" stop-color="hsl(215.2127659574468, 54.57446808510638%, 7.23404255319149%)" />
        <stop offset="60%" stop-color="hsl(224.04255319148936, 54.57446808510638%, 3.276595744680851%)" />
        <stop offset="100%" stop-color="#040914" />
      </linearGradient>
      <radialGradient id="satelliteGlow" cx="50%" cy="50%" r="50%">
        <stop offset="0%" stop-color="#58c7ff" stop-opacity="0.8" />
        <stop offset="60%" stop-color="#58c7ff" stop-opacity="0.15" />
        <stop offset="100%" stop-color="#58c7ff" stop-opacity="0" />
      </radialGradient>
      <radialGradient id="stormGlow" cx="50%" cy="50%" r="50%">
        <stop offset="0%" stop-color="#48e09a" stop-opacity="0.6" />
        <stop offset="45%" stop-color="#58c7ff" stop-opacity="0.4" />
        <stop offset="85%" stop-color="#ff5e6c" stop-opacity="0.2" />
        <stop offset="100%" stop-color="#040914" stop-opacity="0" />
      </radialGradient>
      <radialGradient id="coreGlow" cx="50%" cy="50%" r="50%">
        <stop offset="0%" stop-color="#ffffff" stop-opacity="0.95" />
        <stop offset="25%" stop-color="#58c7ff" stop-opacity="0.85" />
        <stop offset="65%" stop-color="#145374" stop-opacity="0.4" />
        <stop offset="100%" stop-color="#040914" stop-opacity="0" />
      </radialGradient>
      <filter id="bloom" x="-30%" y="-30%" width="160%" height="160%">
        <feGaussianBlur stdDeviation="8" result="blur" />
        <feMerge>
          <feMergeNode in="blur" />
          <feMergeNode in="SourceGraphic" />
        </feMerge>
      </filter>
    </defs>
  
      <rect width="1280" height="720" fill="url(#bgGrad)" />

    <g opacity="0.4043262411347518">
      <circle cx="0.0" cy="57.4" r="1.8" fill="#c5e3f6" opacity="0.63" /><circle cx="137.5" cy="150.7" r="1.1" fill="#c5e3f6" opacity="0.06" /><circle cx="275.0" cy="244.0" r="1.1" fill="#c5e3f6" opacity="-0.29" /><circle cx="412.5" cy="337.3" r="1.8" fill="#c5e3f6" opacity="-0.10" /><circle cx="550.0" cy="430.6" r="1.1" fill="#c5e3f6" opacity="0.46" /><circle cx="687.5" cy="523.9" r="1.1" fill="#c5e3f6" opacity="0.87" /><circle cx="825.0" cy="617.2" r="1.8" fill="#c5e3f6" opacity="0.76" /><circle cx="962.5" cy="710.5" r="1.1" fill="#c5e3f6" opacity="0.22" /><circle cx="1100.0" cy="83.8" r="1.1" fill="#c5e3f6" opacity="-0.24" /><circle cx="1237.5" cy="177.1" r="1.8" fill="#c5e3f6" opacity="-0.21" /><circle cx="95.0" cy="270.4" r="1.1" fill="#c5e3f6" opacity="0.29" /><circle cx="232.5" cy="363.7" r="1.1" fill="#c5e3f6" opacity="0.80" /><circle cx="370.0" cy="457.0" r="1.8" fill="#c5e3f6" opacity="0.85" /><circle cx="507.5" cy="550.3" r="1.1" fill="#c5e3f6" opacity="0.39" /><circle cx="645.0" cy="643.6" r="1.1" fill="#c5e3f6" opacity="-0.15" /><circle cx="782.5" cy="16.9" r="1.8" fill="#c5e3f6" opacity="-0.28" /><circle cx="920.0" cy="110.2" r="1.1" fill="#c5e3f6" opacity="0.12" /><circle cx="1057.5" cy="203.5" r="1.1" fill="#c5e3f6" opacity="0.69" /><circle cx="1195.0" cy="296.8" r="1.8" fill="#c5e3f6" opacity="0.89" /><circle cx="52.5" cy="390.1" r="1.1" fill="#c5e3f6" opacity="0.55" /><circle cx="190.0" cy="483.4" r="1.1" fill="#c5e3f6" opacity="-0.02" /><circle cx="327.5" cy="576.7" r="1.8" fill="#c5e3f6" opacity="-0.30" /><circle cx="465.0" cy="670.0" r="1.1" fill="#c5e3f6" opacity="-0.03" /><circle cx="602.5" cy="43.3" r="1.1" fill="#c5e3f6" opacity="0.54" />
    </g>
  

        <g opacity="0.71">
          <ellipse cx="640" cy="1696" rx="1408" ry="1196.8" fill="#0a2240" />
          <ellipse cx="640" cy="1696" rx="1393.92" ry="1182.72" fill="none" stroke="#58c7ff" stroke-width="6" opacity="0.6" filter="url(#bloom)" />
          <ellipse cx="640" cy="1696" rx="1365.76" ry="1154.56" fill="none" stroke="#48e09a" stroke-width="3" opacity="0.4" />
        </g>
      

        <g opacity="0.71" transform="translate(640, 360) scale(2.4) rotate(12)">
          <!-- Satellite Body -->
          <circle cx="0" cy="0" r="32" fill="url(#satelliteGlow)" />
          <rect x="-14" y="-12" width="28" height="24" rx="4" fill="#1b3a5b" stroke="#58c7ff" stroke-width="1.5" />
          <!-- Solar Panels Left & Right -->
          <rect x="-56" y="-8" width="38" height="16" rx="2" fill="#0d233a" stroke="#48e09a" stroke-width="1" />
          <line x1="-37" y1="-8" x2="-37" y2="8" stroke="#48e09a" stroke-width="0.7" />
          <line x1="-18" y1="-8" x2="-18" y2="8" stroke="#48e09a" stroke-width="0.7" />
          <rect x="18" y="-8" width="38" height="16" rx="2" fill="#0d233a" stroke="#48e09a" stroke-width="1" />
          <line x1="37" y1="-8" x2="37" y2="8" stroke="#48e09a" stroke-width="0.7" />
          <!-- Radar Dish & Telemetry Beam -->
          <path d="M -8 12 Q 0 20 8 12" fill="none" stroke="#ffd166" stroke-width="2" />
          <polygon points="0,18 -32,90 32,90" fill="url(#satelliteGlow)" opacity="0.4" />
          <!-- SIH26068 Marker -->
          <circle cx="0" cy="0" r="3" fill="#ffd166" />
        </g>
      

      <g opacity="0.22" transform="translate(640, 360)">
        <circle cx="0" cy="0" r="124.14579201864045" fill="url(#stormGlow)" />
        <g transform="rotate(206.8085106382979)">
          <!-- Spiral Radar Arms -->
          <path d="M 0 0 Q 60 40 120 120 Q 180 200 240 180" fill="none" stroke="#48e09a" stroke-width="6" stroke-linecap="round" opacity="0.75" />
          <path d="M 0 0 Q -60 -40 -120 -120 Q -180 -200 -240 -180" fill="none" stroke="#58c7ff" stroke-width="7" stroke-linecap="round" opacity="0.8" />
          <path d="M 0 0 Q 50 -70 140 -130 Q 220 -160 280 -100" fill="none" stroke="#ff5e6c" stroke-width="5" stroke-linecap="round" opacity="0.6" />
          <path d="M 0 0 Q -50 70 -140 130 Q -220 160 -280 100" fill="none" stroke="#ffd166" stroke-width="5" stroke-linecap="round" opacity="0.6" />
        </g>
        <!-- Concentric Radar Isobar Rings -->
        <circle cx="0" cy="0" r="43.45102720652415" fill="none" stroke="#58c7ff" stroke-width="1.5" stroke-dasharray="8 6" opacity="0.6" />
        <circle cx="0" cy="0" r="80.69476481211629" fill="none" stroke="#48e09a" stroke-width="1.5" stroke-dasharray="12 8" opacity="0.5" />
        <circle cx="0" cy="0" r="117.93850241770842" fill="none" stroke="#58c7ff" stroke-width="1" stroke-dasharray="4 4" opacity="0.4" />
        <!-- Lightning flash arc -->
        
      </g>
    
    </svg>