<svg xmlns="http://www.w3.org/2000/svg" viewBox="0 0 1280 720" width="1280" height="720">
      
    <defs>
      <linearGradient id="bgGrad" x1="0%" y1="0%" x2="50%" y2="100%">
        <stop offset="0%" stop-color="hsl(211.70212765957447, 61.59574468085107%, 8.872340425531915%)" />
        <stop offset="60%" stop-color="hsl(212.3404255319149, 61.59574468085107%, 4.212765957446809%)" />
        <stop offset="100%" stop-color="#040914" />
      </linearGradient>
      <radialGradient id="satelliteGlow" cx="50%" cy="50%" r="50%">
        <stop offset="0%" stop-color="#58c7ff" stop-opacity="0.8" />
        <stop offset="60%" stop-color="#58c7ff" stop-opacity="0.15" />
        <stop offset="100%" stop-color="#58c7ff" stop-opacity="0" />
      </radialGradient>
      <radialGradient id="stormGlow" cx="50%" cy="50%" r="50%">
        <stop offset="0%" stop-color="#48e09a" stop-opacity="0.6" />
        <stop offset="45%" stop-color="#58c7ff" stop-opacity="0.4" />
        <stop offset="85%" stop-color="#ff5e6c" stop-opacity="0.2" />
        <stop offset="100%" stop-color="#040914" stop-opacity="0" />
      </radialGradient>
      <radialGradient id="coreGlow" cx="50%" cy="50%" r="50%">
        <stop offset="0%" stop-color="#ffffff" stop-opacity="0.95" />
        <stop offset="25%" stop-color="#58c7ff" stop-opacity="0.85" />
        <stop offset="65%" stop-color="#145374" stop-opacity="0.4" />
        <stop offset="100%" stop-color="#040914" stop-opacity="0" />
      </radialGradient>
      <filter id="bloom" x="-30%" y="-30%" width="160%" height="160%">
        <feGaussianBlur stdDeviation="8" result="blur" />
        <feMerge>
          <feMergeNode in="blur" />
          <feMergeNode in="SourceGraphic" />
        </feMerge>
      </filter>
    </defs>
  
      <rect width="1280" height="720" fill="url(#bgGrad)" />

    <g opacity="0.13500000000000004">
      <circle cx="0.0" cy="99.6" r="1.8" fill="#c5e3f6" opacity="-0.28" /><circle cx="137.5" cy="192.9" r="1.1" fill="#c5e3f6" opacity="-0.15" /><circle cx="275.0" cy="286.2" r="1.1" fill="#c5e3f6" opacity="0.39" /><circle cx="412.5" cy="379.5" r="1.8" fill="#c5e3f6" opacity="0.85" /><circle cx="550.0" cy="472.8" r="1.1" fill="#c5e3f6" opacity="0.80" /><circle cx="687.5" cy="566.1" r="1.1" fill="#c5e3f6" opacity="0.30" /><circle cx="825.0" cy="659.4" r="1.8" fill="#c5e3f6" opacity="-0.21" /><circle cx="962.5" cy="32.7" r="1.1" fill="#c5e3f6" opacity="-0.25" /><circle cx="1100.0" cy="126.0" r="1.1" fill="#c5e3f6" opacity="0.22" /><circle cx="1237.5" cy="219.3" r="1.8" fill="#c5e3f6" opacity="0.75" /><circle cx="95.0" cy="312.6" r="1.1" fill="#c5e3f6" opacity="0.88" /><circle cx="232.5" cy="405.9" r="1.1" fill="#c5e3f6" opacity="0.47" /><circle cx="370.0" cy="499.2" r="1.8" fill="#c5e3f6" opacity="-0.09" /><circle cx="507.5" cy="592.5" r="1.1" fill="#c5e3f6" opacity="-0.29" /><circle cx="645.0" cy="685.8" r="1.1" fill="#c5e3f6" opacity="0.05" /><circle cx="782.5" cy="59.1" r="1.8" fill="#c5e3f6" opacity="0.63" /><circle cx="920.0" cy="152.4" r="1.1" fill="#c5e3f6" opacity="0.90" /><circle cx="1057.5" cy="245.7" r="1.1" fill="#c5e3f6" opacity="0.62" /><circle cx="1195.0" cy="339.0" r="1.8" fill="#c5e3f6" opacity="0.05" /><circle cx="52.5" cy="432.3" r="1.1" fill="#c5e3f6" opacity="-0.29" /><circle cx="190.0" cy="525.6" r="1.1" fill="#c5e3f6" opacity="-0.09" /><circle cx="327.5" cy="618.9" r="1.8" fill="#c5e3f6" opacity="0.47" /><circle cx="465.0" cy="712.2" r="1.1" fill="#c5e3f6" opacity="0.88" /><circle cx="602.5" cy="85.5" r="1.1" fill="#c5e3f6" opacity="0.75" />
    </g>
  

      <g opacity="1.00" transform="translate(640, 360)">
        <circle cx="0" cy="0" r="460" fill="url(#stormGlow)" />
        <g transform="rotate(358.468085106383)">
          <!-- Spiral Radar Arms -->
          <path d="M 0 0 Q 60 40 120 120 Q 180 200 240 180" fill="none" stroke="#48e09a" stroke-width="6" stroke-linecap="round" opacity="0.75" />
          <path d="M 0 0 Q -60 -40 -120 -120 Q -180 -200 -240 -180" fill="none" stroke="#58c7ff" stroke-width="7" stroke-linecap="round" opacity="0.8" />
          <path d="M 0 0 Q 50 -70 140 -130 Q 220 -160 280 -100" fill="none" stroke="#ff5e6c" stroke-width="5" stroke-linecap="round" opacity="0.6" />
          <path d="M 0 0 Q -50 70 -140 130 Q -220 160 -280 100" fill="none" stroke="#ffd166" stroke-width="5" stroke-linecap="round" opacity="0.6" />
        </g>
        <!-- Concentric Radar Isobar Rings -->
        <circle cx="0" cy="0" r="161" fill="none" stroke="#58c7ff" stroke-width="1.5" stroke-dasharray="8 6" opacity="0.6" />
        <circle cx="0" cy="0" r="299" fill="none" stroke="#48e09a" stroke-width="1.5" stroke-dasharray="12 8" opacity="0.5" />
        <circle cx="0" cy="0" r="437" fill="none" stroke="#58c7ff" stroke-width="1" stroke-dasharray="4 4" opacity="0.4" />
        <!-- Lightning flash arc -->
        
      </g>
    

      <g opacity="0.02" transform="translate(640, 360) scale(0.8194264569842737)">
        <!-- Telemetry Data Grid Nodes -->
        
            <line x1="0" y1="0" x2="54.2" y2="108.2" stroke="#58c7ff" stroke-width="1" opacity="0.4" stroke-dasharray="4 4" />
            <circle cx="54.2" cy="108.2" r="7" fill="#0d2744" stroke="#48e09a" stroke-width="2" />
            <circle cx="54.2" cy="108.2" r="3" fill="#ffffff" />
          
            <line x1="0" y1="0" x2="-29.2" y2="87.7" stroke="#58c7ff" stroke-width="1" opacity="0.4" stroke-dasharray="4 4" />
            <circle cx="-29.2" cy="87.7" r="7" fill="#0d2744" stroke="#48e09a" stroke-width="2" />
            <circle cx="-29.2" cy="87.7" r="3" fill="#ffffff" />
          
            <line x1="0" y1="0" x2="-71.6" y2="35.9" stroke="#58c7ff" stroke-width="1" opacity="0.4" stroke-dasharray="4 4" />
            <circle cx="-71.6" cy="35.9" r="7" fill="#0d2744" stroke="#48e09a" stroke-width="2" />
            <circle cx="-71.6" cy="35.9" r="3" fill="#ffffff" />
          
            <line x1="0" y1="0" x2="-90.3" y2="-30.0" stroke="#58c7ff" stroke-width="1" opacity="0.4" stroke-dasharray="4 4" />
            <circle cx="-90.3" cy="-30.0" r="7" fill="#0d2744" stroke="#48e09a" stroke-width="2" />
            <circle cx="-90.3" cy="-30.0" r="3" fill="#ffffff" />
          
            <line x1="0" y1="0" x2="-55.5" y2="-110.8" stroke="#58c7ff" stroke-width="1" opacity="0.4" stroke-dasharray="4 4" />
            <circle cx="-55.5" cy="-110.8" r="7" fill="#0d2744" stroke="#48e09a" stroke-width="2" />
            <circle cx="-55.5" cy="-110.8" r="3" fill="#ffffff" />
          
            <line x1="0" y1="0" x2="44.1" y2="-132.7" stroke="#58c7ff" stroke-width="1" opacity="0.4" stroke-dasharray="4 4" />
            <circle cx="44.1" cy="-132.7" r="7" fill="#0d2744" stroke="#48e09a" stroke-width="2" />
            <circle cx="44.1" cy="-132.7" r="3" fill="#ffffff" />
          
            <line x1="0" y1="0" x2="114.8" y2="-57.5" stroke="#58c7ff" stroke-width="1" opacity="0.4" stroke-dasharray="4 4" />
            <circle cx="114.8" cy="-57.5" r="7" fill="#0d2744" stroke="#48e09a" stroke-width="2" />
            <circle cx="114.8" cy="-57.5" r="3" fill="#ffffff" />
          
            <line x1="0" y1="0" x2="94.9" y2="31.5" stroke="#58c7ff" stroke-width="1" opacity="0.4" stroke-dasharray="4 4" />
            <circle cx="94.9" cy="31.5" r="7" fill="#0d2744" stroke="#48e09a" stroke-width="2" />
            <circle cx="94.9" cy="31.5" r="3" fill="#ffffff" />
          
        
        <!-- Moisture Aerosol Floating Spheres -->
        <circle cx="-60" cy="-45" r="28" fill="url(#coreGlow)" opacity="0.6" />
        <circle cx="70" cy="40" r="36" fill="url(#coreGlow)" opacity="0.5" />
        <circle cx="-40" cy="65" r="20" fill="url(#coreGlow)" opacity="0.7" />
        <circle cx="50" cy="-60" r="22" fill="url(#coreGlow)" opacity="0.65" />
        
        <!-- Telemetry Floating Badges -->
        <g transform="translate(-100, -110)" opacity="0.85">
          <rect width="90" height="24" rx="6" fill="rgba(8,20,38,0.85)" stroke="#58c7ff" stroke-width="1" />
          <text x="45" y="16" text-anchor="middle" fill="#58c7ff" font-size="10.5" font-family="sans-serif" font-weight="bold">💧 84% HUMID</text>
        </g>
        <g transform="translate(18, 95)" opacity="0.85">
          <rect width="90" height="24" rx="6" fill="rgba(8,20,38,0.85)" stroke="#48e09a" stroke-width="1" />
          <text x="45" y="16" text-anchor="middle" fill="#48e09a" font-size="10.5" font-family="sans-serif" font-weight="bold">💨 14 km/h S</text>
        </g>
      </g>
    
    </svg>