<svg xmlns="http://www.w3.org/2000/svg" viewBox="0 0 1280 720" width="1280" height="720">
      
    <defs>
      <linearGradient id="bgGrad" x1="0%" y1="0%" x2="50%" y2="100%">
        <stop offset="0%" stop-color="hsl(210.74468085106383, 63.51063829787234%, 9.319148936170212%)" />
        <stop offset="60%" stop-color="hsl(209.14893617021278, 63.51063829787234%, 4.468085106382979%)" />
        <stop offset="100%" stop-color="#040914" />
      </linearGradient>
      <radialGradient id="satelliteGlow" cx="50%" cy="50%" r="50%">
        <stop offset="0%" stop-color="#58c7ff" stop-opacity="0.8" />
        <stop offset="60%" stop-color="#58c7ff" stop-opacity="0.15" />
        <stop offset="100%" stop-color="#58c7ff" stop-opacity="0" />
      </radialGradient>
      <radialGradient id="stormGlow" cx="50%" cy="50%" r="50%">
        <stop offset="0%" stop-color="#48e09a" stop-opacity="0.6" />
        <stop offset="45%" stop-color="#58c7ff" stop-opacity="0.4" />
        <stop offset="85%" stop-color="#ff5e6c" stop-opacity="0.2" />
        <stop offset="100%" stop-color="#040914" stop-opacity="0" />
      </radialGradient>
      <radialGradient id="coreGlow" cx="50%" cy="50%" r="50%">
        <stop offset="0%" stop-color="#ffffff" stop-opacity="0.95" />
        <stop offset="25%" stop-color="#58c7ff" stop-opacity="0.85" />
        <stop offset="65%" stop-color="#145374" stop-opacity="0.4" />
        <stop offset="100%" stop-color="#040914" stop-opacity="0" />
      </radialGradient>
      <filter id="bloom" x="-30%" y="-30%" width="160%" height="160%">
        <feGaussianBlur stdDeviation="8" result="blur" />
        <feMerge>
          <feMergeNode in="blur" />
          <feMergeNode in="SourceGraphic" />
        </feMerge>
      </filter>
    </defs>
  
      <rect width="1280" height="720" fill="url(#bgGrad)" />

    <g opacity="0.13500000000000004">
      <circle cx="0.0" cy="111.1" r="1.8" fill="#c5e3f6" opacity="-0.29" /><circle cx="137.5" cy="204.4" r="1.1" fill="#c5e3f6" opacity="0.10" /><circle cx="275.0" cy="297.7" r="1.1" fill="#c5e3f6" opacity="0.66" /><circle cx="412.5" cy="391.0" r="1.8" fill="#c5e3f6" opacity="0.90" /><circle cx="550.0" cy="484.3" r="1.1" fill="#c5e3f6" opacity="0.58" /><circle cx="687.5" cy="577.6" r="1.1" fill="#c5e3f6" opacity="0.01" /><circle cx="825.0" cy="670.9" r="1.8" fill="#c5e3f6" opacity="-0.30" /><circle cx="962.5" cy="44.2" r="1.1" fill="#c5e3f6" opacity="-0.05" /><circle cx="1100.0" cy="137.5" r="1.1" fill="#c5e3f6" opacity="0.52" /><circle cx="1237.5" cy="230.8" r="1.8" fill="#c5e3f6" opacity="0.89" /><circle cx="95.0" cy="324.1" r="1.1" fill="#c5e3f6" opacity="0.72" /><circle cx="232.5" cy="417.4" r="1.1" fill="#c5e3f6" opacity="0.16" /><circle cx="370.0" cy="510.7" r="1.8" fill="#c5e3f6" opacity="-0.27" /><circle cx="507.5" cy="604.0" r="1.1" fill="#c5e3f6" opacity="-0.17" /><circle cx="645.0" cy="697.3" r="1.1" fill="#c5e3f6" opacity="0.35" /><circle cx="782.5" cy="70.6" r="1.8" fill="#c5e3f6" opacity="0.83" /><circle cx="920.0" cy="163.9" r="1.1" fill="#c5e3f6" opacity="0.82" /><circle cx="1057.5" cy="257.2" r="1.1" fill="#c5e3f6" opacity="0.33" /><circle cx="1195.0" cy="350.5" r="1.8" fill="#c5e3f6" opacity="-0.19" /><circle cx="52.5" cy="443.8" r="1.1" fill="#c5e3f6" opacity="-0.26" /><circle cx="190.0" cy="537.1" r="1.1" fill="#c5e3f6" opacity="0.18" /><circle cx="327.5" cy="630.4" r="1.8" fill="#c5e3f6" opacity="0.73" /><circle cx="465.0" cy="3.7" r="1.1" fill="#c5e3f6" opacity="0.88" /><circle cx="602.5" cy="97.0" r="1.1" fill="#c5e3f6" opacity="0.50" />
    </g>
  

      <g opacity="1.00" transform="translate(640, 360)">
        <circle cx="0" cy="0" r="460" fill="url(#stormGlow)" />
        <g transform="rotate(39.829787234042556)">
          <!-- Spiral Radar Arms -->
          <path d="M 0 0 Q 60 40 120 120 Q 180 200 240 180" fill="none" stroke="#48e09a" stroke-width="6" stroke-linecap="round" opacity="0.75" />
          <path d="M 0 0 Q -60 -40 -120 -120 Q -180 -200 -240 -180" fill="none" stroke="#58c7ff" stroke-width="7" stroke-linecap="round" opacity="0.8" />
          <path d="M 0 0 Q 50 -70 140 -130 Q 220 -160 280 -100" fill="none" stroke="#ff5e6c" stroke-width="5" stroke-linecap="round" opacity="0.6" />
          <path d="M 0 0 Q -50 70 -140 130 Q -220 160 -280 100" fill="none" stroke="#ffd166" stroke-width="5" stroke-linecap="round" opacity="0.6" />
        </g>
        <!-- Concentric Radar Isobar Rings -->
        <circle cx="0" cy="0" r="161" fill="none" stroke="#58c7ff" stroke-width="1.5" stroke-dasharray="8 6" opacity="0.6" />
        <circle cx="0" cy="0" r="299" fill="none" stroke="#48e09a" stroke-width="1.5" stroke-dasharray="12 8" opacity="0.5" />
        <circle cx="0" cy="0" r="437" fill="none" stroke="#58c7ff" stroke-width="1" stroke-dasharray="4 4" opacity="0.4" />
        <!-- Lightning flash arc -->
        
      </g>
    

      <g opacity="0.44" transform="translate(640, 360) scale(1.20795559666975)">
        <!-- Telemetry Data Grid Nodes -->
        
            <line x1="0" y1="0" x2="36.9" y2="105.4" stroke="#58c7ff" stroke-width="1" opacity="0.4" stroke-dasharray="4 4" />
            <circle cx="36.9" cy="105.4" r="7" fill="#0d2744" stroke="#48e09a" stroke-width="2" />
            <circle cx="36.9" cy="105.4" r="3" fill="#ffffff" />
          
            <line x1="0" y1="0" x2="-37.2" y2="77.2" stroke="#58c7ff" stroke-width="1" opacity="0.4" stroke-dasharray="4 4" />
            <circle cx="-37.2" cy="77.2" r="7" fill="#0d2744" stroke="#48e09a" stroke-width="2" />
            <circle cx="-37.2" cy="77.2" r="3" fill="#ffffff" />
          
            <line x1="0" y1="0" x2="-77.5" y2="27.1" stroke="#58c7ff" stroke-width="1" opacity="0.4" stroke-dasharray="4 4" />
            <circle cx="-77.5" cy="27.1" r="7" fill="#0d2744" stroke="#48e09a" stroke-width="2" />
            <circle cx="-77.5" cy="27.1" r="3" fill="#ffffff" />
          
            <line x1="0" y1="0" x2="-93.8" y2="-45.2" stroke="#58c7ff" stroke-width="1" opacity="0.4" stroke-dasharray="4 4" />
            <circle cx="-93.8" cy="-45.2" r="7" fill="#0d2744" stroke="#48e09a" stroke-width="2" />
            <circle cx="-93.8" cy="-45.2" r="3" fill="#ffffff" />
          
            <line x1="0" y1="0" x2="-43.5" y2="-124.2" stroke="#58c7ff" stroke-width="1" opacity="0.4" stroke-dasharray="4 4" />
            <circle cx="-43.5" cy="-124.2" r="7" fill="#0d2744" stroke="#48e09a" stroke-width="2" />
            <circle cx="-43.5" cy="-124.2" r="3" fill="#ffffff" />
          
            <line x1="0" y1="0" x2="60.4" y2="-125.4" stroke="#58c7ff" stroke-width="1" opacity="0.4" stroke-dasharray="4 4" />
            <circle cx="60.4" cy="-125.4" r="7" fill="#0d2744" stroke="#48e09a" stroke-width="2" />
            <circle cx="60.4" cy="-125.4" r="3" fill="#ffffff" />
          
            <line x1="0" y1="0" x2="113.3" y2="-39.6" stroke="#58c7ff" stroke-width="1" opacity="0.4" stroke-dasharray="4 4" />
            <circle cx="113.3" cy="-39.6" r="7" fill="#0d2744" stroke="#48e09a" stroke-width="2" />
            <circle cx="113.3" cy="-39.6" r="3" fill="#ffffff" />
          
            <line x1="0" y1="0" x2="82.5" y2="39.7" stroke="#58c7ff" stroke-width="1" opacity="0.4" stroke-dasharray="4 4" />
            <circle cx="82.5" cy="39.7" r="7" fill="#0d2744" stroke="#48e09a" stroke-width="2" />
            <circle cx="82.5" cy="39.7" r="3" fill="#ffffff" />
          
        
        <!-- Moisture Aerosol Floating Spheres -->
        <circle cx="-60" cy="-45" r="28" fill="url(#coreGlow)" opacity="0.6" />
        <circle cx="70" cy="40" r="36" fill="url(#coreGlow)" opacity="0.5" />
        <circle cx="-40" cy="65" r="20" fill="url(#coreGlow)" opacity="0.7" />
        <circle cx="50" cy="-60" r="22" fill="url(#coreGlow)" opacity="0.65" />
        
        <!-- Telemetry Floating Badges -->
        <g transform="translate(-100, -110)" opacity="0.85">
          <rect width="90" height="24" rx="6" fill="rgba(8,20,38,0.85)" stroke="#58c7ff" stroke-width="1" />
          <text x="45" y="16" text-anchor="middle" fill="#58c7ff" font-size="10.5" font-family="sans-serif" font-weight="bold">💧 84% HUMID</text>
        </g>
        <g transform="translate(18, 95)" opacity="0.85">
          <rect width="90" height="24" rx="6" fill="rgba(8,20,38,0.85)" stroke="#48e09a" stroke-width="1" />
          <text x="45" y="16" text-anchor="middle" fill="#48e09a" font-size="10.5" font-family="sans-serif" font-weight="bold">💨 14 km/h S</text>
        </g>
      </g>
    
    </svg>