<svg xmlns="http://www.w3.org/2000/svg" viewBox="0 0 720 1280" width="720" height="1280">
      
    <defs>
      <linearGradient id="bgGrad" x1="0%" y1="0%" x2="50%" y2="100%">
        <stop offset="0%" stop-color="hsl(207.2340425531915, 70.53191489361703%, 10.957446808510639%)" />
        <stop offset="60%" stop-color="hsl(197.4468085106383, 70.53191489361703%, 5.404255319148936%)" />
        <stop offset="100%" stop-color="#040914" />
      </linearGradient>
      <radialGradient id="satelliteGlow" cx="50%" cy="50%" r="50%">
        <stop offset="0%" stop-color="#58c7ff" stop-opacity="0.8" />
        <stop offset="60%" stop-color="#58c7ff" stop-opacity="0.15" />
        <stop offset="100%" stop-color="#58c7ff" stop-opacity="0" />
      </radialGradient>
      <radialGradient id="stormGlow" cx="50%" cy="50%" r="50%">
        <stop offset="0%" stop-color="#48e09a" stop-opacity="0.40618955512572535" />
        <stop offset="45%" stop-color="#58c7ff" stop-opacity="0.27079303675048355" />
        <stop offset="85%" stop-color="#ff5e6c" stop-opacity="0.13539651837524178" />
        <stop offset="100%" stop-color="#040914" stop-opacity="0" />
      </radialGradient>
      <radialGradient id="coreGlow" cx="50%" cy="50%" r="50%">
        <stop offset="0%" stop-color="#ffffff" stop-opacity="0.95" />
        <stop offset="25%" stop-color="#58c7ff" stop-opacity="0.85" />
        <stop offset="65%" stop-color="#145374" stop-opacity="0.4" />
        <stop offset="100%" stop-color="#040914" stop-opacity="0" />
      </radialGradient>
      <filter id="bloom" x="-30%" y="-30%" width="160%" height="160%">
        <feGaussianBlur stdDeviation="8" result="blur" />
        <feMerge>
          <feMergeNode in="blur" />
          <feMergeNode in="SourceGraphic" />
        </feMerge>
      </filter>
    </defs>
  
      <rect width="720" height="1280" fill="url(#bgGrad)" />

    <g opacity="0.13500000000000004">
      <circle cx="0.0" cy="153.2" r="1.8" fill="#c5e3f6" opacity="0.60" /><circle cx="137.5" cy="246.5" r="1.1" fill="#c5e3f6" opacity="0.90" /><circle cx="275.0" cy="339.8" r="1.1" fill="#c5e3f6" opacity="0.65" /><circle cx="412.5" cy="433.1" r="1.8" fill="#c5e3f6" opacity="0.08" /><circle cx="550.0" cy="526.4" r="1.1" fill="#c5e3f6" opacity="-0.29" /><circle cx="687.5" cy="619.7" r="1.1" fill="#c5e3f6" opacity="-0.11" /><circle cx="105.0" cy="713.0" r="1.8" fill="#c5e3f6" opacity="0.44" /><circle cx="242.5" cy="806.3" r="1.1" fill="#c5e3f6" opacity="0.87" /><circle cx="380.0" cy="899.6" r="1.1" fill="#c5e3f6" opacity="0.77" /><circle cx="517.5" cy="992.9" r="1.8" fill="#c5e3f6" opacity="0.24" /><circle cx="655.0" cy="1086.2" r="1.1" fill="#c5e3f6" opacity="-0.23" /><circle cx="72.5" cy="1179.5" r="1.1" fill="#c5e3f6" opacity="-0.22" /><circle cx="210.0" cy="1272.8" r="1.8" fill="#c5e3f6" opacity="0.28" /><circle cx="347.5" cy="86.1" r="1.1" fill="#c5e3f6" opacity="0.79" /><circle cx="485.0" cy="179.4" r="1.1" fill="#c5e3f6" opacity="0.86" /><circle cx="622.5" cy="272.7" r="1.8" fill="#c5e3f6" opacity="0.41" /><circle cx="40.0" cy="366.0" r="1.1" fill="#c5e3f6" opacity="-0.14" /><circle cx="177.5" cy="459.3" r="1.1" fill="#c5e3f6" opacity="-0.28" /><circle cx="315.0" cy="552.6" r="1.8" fill="#c5e3f6" opacity="0.11" /><circle cx="452.5" cy="645.9" r="1.1" fill="#c5e3f6" opacity="0.68" /><circle cx="590.0" cy="739.2" r="1.1" fill="#c5e3f6" opacity="0.90" /><circle cx="7.5" cy="832.5" r="1.8" fill="#c5e3f6" opacity="0.57" /><circle cx="145.0" cy="925.8" r="1.1" fill="#c5e3f6" opacity="-0.01" /><circle cx="282.5" cy="1019.1" r="1.1" fill="#c5e3f6" opacity="-0.30" />
    </g>
  

      <g opacity="1.00" transform="translate(360, 563.2) scale(2.2)">
        <!-- Telemetry Data Grid Nodes -->
        
            <line x1="0" y1="0" x2="-10.9" y2="82.4" stroke="#58c7ff" stroke-width="1" opacity="0.4" stroke-dasharray="4 4" />
            <circle cx="-10.9" cy="82.4" r="7" fill="#0d2744" stroke="#48e09a" stroke-width="2" />
            <circle cx="-10.9" cy="82.4" r="3" fill="#ffffff" />
          
            <line x1="0" y1="0" x2="-66.9" y2="51.3" stroke="#58c7ff" stroke-width="1" opacity="0.4" stroke-dasharray="4 4" />
            <circle cx="-66.9" cy="51.3" r="7" fill="#0d2744" stroke="#48e09a" stroke-width="2" />
            <circle cx="-66.9" cy="51.3" r="3" fill="#ffffff" />
          
            <line x1="0" y1="0" x2="-108.2" y2="-14.3" stroke="#58c7ff" stroke-width="1" opacity="0.4" stroke-dasharray="4 4" />
            <circle cx="-108.2" cy="-14.3" r="7" fill="#0d2744" stroke="#48e09a" stroke-width="2" />
            <circle cx="-108.2" cy="-14.3" r="3" fill="#ffffff" />
          
            <line x1="0" y1="0" x2="-82.0" y2="-107.0" stroke="#58c7ff" stroke-width="1" opacity="0.4" stroke-dasharray="4 4" />
            <circle cx="-82.0" cy="-107.0" r="7" fill="#0d2744" stroke="#48e09a" stroke-width="2" />
            <circle cx="-82.0" cy="-107.0" r="3" fill="#ffffff" />
          
            <line x1="0" y1="0" x2="18.0" y2="-136.4" stroke="#58c7ff" stroke-width="1" opacity="0.4" stroke-dasharray="4 4" />
            <circle cx="18.0" cy="-136.4" r="7" fill="#0d2744" stroke="#48e09a" stroke-width="2" />
            <circle cx="18.0" cy="-136.4" r="3" fill="#ffffff" />
          
            <line x1="0" y1="0" x2="91.3" y2="-70.0" stroke="#58c7ff" stroke-width="1" opacity="0.4" stroke-dasharray="4 4" />
            <circle cx="91.3" cy="-70.0" r="7" fill="#0d2744" stroke="#48e09a" stroke-width="2" />
            <circle cx="91.3" cy="-70.0" r="3" fill="#ffffff" />
          
            <line x1="0" y1="0" x2="87.1" y2="11.5" stroke="#58c7ff" stroke-width="1" opacity="0.4" stroke-dasharray="4 4" />
            <circle cx="87.1" cy="11.5" r="7" fill="#0d2744" stroke="#48e09a" stroke-width="2" />
            <circle cx="87.1" cy="11.5" r="3" fill="#ffffff" />
          
            <line x1="0" y1="0" x2="49.3" y2="64.3" stroke="#58c7ff" stroke-width="1" opacity="0.4" stroke-dasharray="4 4" />
            <circle cx="49.3" cy="64.3" r="7" fill="#0d2744" stroke="#48e09a" stroke-width="2" />
            <circle cx="49.3" cy="64.3" r="3" fill="#ffffff" />
          
        
        <!-- Moisture Aerosol Floating Spheres -->
        <circle cx="-60" cy="-45" r="28" fill="url(#coreGlow)" opacity="0.6" />
        <circle cx="70" cy="40" r="36" fill="url(#coreGlow)" opacity="0.5" />
        <circle cx="-40" cy="65" r="20" fill="url(#coreGlow)" opacity="0.7" />
        <circle cx="50" cy="-60" r="22" fill="url(#coreGlow)" opacity="0.65" />
        
        <!-- Telemetry Floating Badges -->
        <g transform="translate(-100, -110)" opacity="0.85">
          <rect width="90" height="24" rx="6" fill="rgba(8,20,38,0.85)" stroke="#58c7ff" stroke-width="1" />
          <text x="45" y="16" text-anchor="middle" fill="#58c7ff" font-size="10.5" font-family="sans-serif" font-weight="bold">💧 84% HUMID</text>
        </g>
        <g transform="translate(18, 95)" opacity="0.85">
          <rect width="90" height="24" rx="6" fill="rgba(8,20,38,0.85)" stroke="#48e09a" stroke-width="1" />
          <text x="45" y="16" text-anchor="middle" fill="#48e09a" font-size="10.5" font-family="sans-serif" font-weight="bold">💨 14 km/h S</text>
        </g>
      </g>
    

      <g opacity="0.45" transform="translate(360, 563.2) scale(0.6539259452961516)">
        <!-- Giant Radiant Orb Aura -->
        <circle cx="0" cy="0" r="160" fill="url(#coreGlow)" />
        
        <!-- Rotating Gyroscope Rings -->
        <ellipse cx="0" cy="0" rx="140" ry="46" fill="none" stroke="#58c7ff" stroke-width="3" transform="rotate(204.25531914893617)" opacity="0.85" filter="url(#bloom)" />
        <ellipse cx="0" cy="0" rx="130" ry="52" fill="none" stroke="#48e09a" stroke-width="2.5" transform="rotate(-255.31914893617022)" opacity="0.8" />
        <ellipse cx="0" cy="0" rx="110" ry="110" fill="none" stroke="rgba(255,255,255,0.4)" stroke-width="1.5" stroke-dasharray="10 6" />
        
        <!-- Central Glassmorphic Hologram Orb -->
        <circle cx="0" cy="0" r="75" fill="#081c33" stroke="#58c7ff" stroke-width="3" />
        <circle cx="-20" cy="-25" r="24" fill="rgba(255,255,255,0.25)" opacity="0.7" />
        
        <!-- WeatherGPT Emblem & Live Pulse -->
        <text x="0" y="-12" text-anchor="middle" font-size="34" font-family="sans-serif">🌦️</text>
        <text x="0" y="24" text-anchor="middle" fill="#ffffff" font-size="15" font-family="sans-serif" font-weight="800" letter-spacing="0.08em">WeatherGPT</text>
        <text x="0" y="42" text-anchor="middle" fill="#48e09a" font-size="11" font-family="sans-serif" font-weight="700">SIH26068 • AI ENGINE</text>
        
        <!-- Orbiting Satellite Node around Product -->
        <g transform="rotate(204.25531914893617) translate(140, 0)">
          <circle cx="0" cy="0" r="7" fill="#ffd166" filter="url(#bloom)" />
          <circle cx="0" cy="0" r="12" fill="none" stroke="#ffd166" stroke-width="1" opacity="0.6" />
        </g>
      </g>
    
    </svg>