<svg xmlns="http://www.w3.org/2000/svg" viewBox="0 0 720 1280" width="720" height="1280">
      
    <defs>
      <linearGradient id="bgGrad" x1="0%" y1="0%" x2="50%" y2="100%">
        <stop offset="0%" stop-color="hsl(209.14893617021278, 66.70212765957447%, 10.063829787234042%)" />
        <stop offset="60%" stop-color="hsl(203.82978723404256, 66.70212765957447%, 4.8936170212765955%)" />
        <stop offset="100%" stop-color="#040914" />
      </linearGradient>
      <radialGradient id="satelliteGlow" cx="50%" cy="50%" r="50%">
        <stop offset="0%" stop-color="#58c7ff" stop-opacity="0.8" />
        <stop offset="60%" stop-color="#58c7ff" stop-opacity="0.15" />
        <stop offset="100%" stop-color="#58c7ff" stop-opacity="0" />
      </radialGradient>
      <radialGradient id="stormGlow" cx="50%" cy="50%" r="50%">
        <stop offset="0%" stop-color="#48e09a" stop-opacity="0.6" />
        <stop offset="45%" stop-color="#58c7ff" stop-opacity="0.4" />
        <stop offset="85%" stop-color="#ff5e6c" stop-opacity="0.2" />
        <stop offset="100%" stop-color="#040914" stop-opacity="0" />
      </radialGradient>
      <radialGradient id="coreGlow" cx="50%" cy="50%" r="50%">
        <stop offset="0%" stop-color="#ffffff" stop-opacity="0.95" />
        <stop offset="25%" stop-color="#58c7ff" stop-opacity="0.85" />
        <stop offset="65%" stop-color="#145374" stop-opacity="0.4" />
        <stop offset="100%" stop-color="#040914" stop-opacity="0" />
      </radialGradient>
      <filter id="bloom" x="-30%" y="-30%" width="160%" height="160%">
        <feGaussianBlur stdDeviation="8" result="blur" />
        <feMerge>
          <feMergeNode in="blur" />
          <feMergeNode in="SourceGraphic" />
        </feMerge>
      </filter>
    </defs>
  
      <rect width="720" height="1280" fill="url(#bgGrad)" />

    <g opacity="0.13500000000000004">
      <circle cx="0.0" cy="130.2" r="1.8" fill="#c5e3f6" opacity="0.01" /><circle cx="137.5" cy="223.5" r="1.1" fill="#c5e3f6" opacity="0.59" /><circle cx="275.0" cy="316.8" r="1.1" fill="#c5e3f6" opacity="0.90" /><circle cx="412.5" cy="410.1" r="1.8" fill="#c5e3f6" opacity="0.66" /><circle cx="550.0" cy="503.4" r="1.1" fill="#c5e3f6" opacity="0.09" /><circle cx="687.5" cy="596.7" r="1.1" fill="#c5e3f6" opacity="-0.29" /><circle cx="105.0" cy="690.0" r="1.8" fill="#c5e3f6" opacity="-0.12" /><circle cx="242.5" cy="783.3" r="1.1" fill="#c5e3f6" opacity="0.43" /><circle cx="380.0" cy="876.6" r="1.1" fill="#c5e3f6" opacity="0.86" /><circle cx="517.5" cy="969.9" r="1.8" fill="#c5e3f6" opacity="0.78" /><circle cx="655.0" cy="1063.2" r="1.1" fill="#c5e3f6" opacity="0.25" /><circle cx="72.5" cy="1156.5" r="1.1" fill="#c5e3f6" opacity="-0.23" /><circle cx="210.0" cy="1249.8" r="1.8" fill="#c5e3f6" opacity="-0.22" /><circle cx="347.5" cy="63.1" r="1.1" fill="#c5e3f6" opacity="0.26" /><circle cx="485.0" cy="156.4" r="1.1" fill="#c5e3f6" opacity="0.78" /><circle cx="622.5" cy="249.7" r="1.8" fill="#c5e3f6" opacity="0.86" /><circle cx="40.0" cy="343.0" r="1.1" fill="#c5e3f6" opacity="0.42" /><circle cx="177.5" cy="436.3" r="1.1" fill="#c5e3f6" opacity="-0.13" /><circle cx="315.0" cy="529.6" r="1.8" fill="#c5e3f6" opacity="-0.28" /><circle cx="452.5" cy="622.9" r="1.1" fill="#c5e3f6" opacity="0.10" /><circle cx="590.0" cy="716.2" r="1.1" fill="#c5e3f6" opacity="0.67" /><circle cx="7.5" cy="809.5" r="1.8" fill="#c5e3f6" opacity="0.90" /><circle cx="145.0" cy="902.8" r="1.1" fill="#c5e3f6" opacity="0.58" /><circle cx="282.5" cy="996.1" r="1.1" fill="#c5e3f6" opacity="0.01" />
    </g>
  

      <g opacity="0.49" transform="translate(360, 563.2)">
        <circle cx="0" cy="0" r="380" fill="url(#stormGlow)" />
        <g transform="rotate(108.7659574468085)">
          <!-- Spiral Radar Arms -->
          <path d="M 0 0 Q 60 40 120 120 Q 180 200 240 180" fill="none" stroke="#48e09a" stroke-width="6" stroke-linecap="round" opacity="0.75" />
          <path d="M 0 0 Q -60 -40 -120 -120 Q -180 -200 -240 -180" fill="none" stroke="#58c7ff" stroke-width="7" stroke-linecap="round" opacity="0.8" />
          <path d="M 0 0 Q 50 -70 140 -130 Q 220 -160 280 -100" fill="none" stroke="#ff5e6c" stroke-width="5" stroke-linecap="round" opacity="0.6" />
          <path d="M 0 0 Q -50 70 -140 130 Q -220 160 -280 100" fill="none" stroke="#ffd166" stroke-width="5" stroke-linecap="round" opacity="0.6" />
        </g>
        <!-- Concentric Radar Isobar Rings -->
        <circle cx="0" cy="0" r="133" fill="none" stroke="#58c7ff" stroke-width="1.5" stroke-dasharray="8 6" opacity="0.6" />
        <circle cx="0" cy="0" r="247" fill="none" stroke="#48e09a" stroke-width="1.5" stroke-dasharray="12 8" opacity="0.5" />
        <circle cx="0" cy="0" r="361" fill="none" stroke="#58c7ff" stroke-width="1" stroke-dasharray="4 4" opacity="0.4" />
        <!-- Lightning flash arc -->
        
      </g>
    

      <g opacity="1.00" transform="translate(360, 563.2) scale(1.855504162812211)">
        <!-- Telemetry Data Grid Nodes -->
        
            <line x1="0" y1="0" x2="11.9" y2="95.5" stroke="#58c7ff" stroke-width="1" opacity="0.4" stroke-dasharray="4 4" />
            <circle cx="11.9" cy="95.5" r="7" fill="#0d2744" stroke="#48e09a" stroke-width="2" />
            <circle cx="11.9" cy="95.5" r="3" fill="#ffffff" />
          
            <line x1="0" y1="0" x2="-49.2" y2="63.2" stroke="#58c7ff" stroke-width="1" opacity="0.4" stroke-dasharray="4 4" />
            <circle cx="-49.2" cy="63.2" r="7" fill="#0d2744" stroke="#48e09a" stroke-width="2" />
            <circle cx="-49.2" cy="63.2" r="3" fill="#ffffff" />
          
            <line x1="0" y1="0" x2="-90.8" y2="11.3" stroke="#58c7ff" stroke-width="1" opacity="0.4" stroke-dasharray="4 4" />
            <circle cx="-90.8" cy="11.3" r="7" fill="#0d2744" stroke="#48e09a" stroke-width="2" />
            <circle cx="-90.8" cy="11.3" r="3" fill="#ffffff" />
          
            <line x1="0" y1="0" x2="-94.6" y2="-73.6" stroke="#58c7ff" stroke-width="1" opacity="0.4" stroke-dasharray="4 4" />
            <circle cx="-94.6" cy="-73.6" r="7" fill="#0d2744" stroke="#48e09a" stroke-width="2" />
            <circle cx="-94.6" cy="-73.6" r="3" fill="#ffffff" />
          
            <line x1="0" y1="0" x2="-17.2" y2="-138.1" stroke="#58c7ff" stroke-width="1" opacity="0.4" stroke-dasharray="4 4" />
            <circle cx="-17.2" cy="-138.1" r="7" fill="#0d2744" stroke="#48e09a" stroke-width="2" />
            <circle cx="-17.2" cy="-138.1" r="3" fill="#ffffff" />
          
            <line x1="0" y1="0" x2="80.9" y2="-103.9" stroke="#58c7ff" stroke-width="1" opacity="0.4" stroke-dasharray="4 4" />
            <circle cx="80.9" cy="-103.9" r="7" fill="#0d2744" stroke="#48e09a" stroke-width="2" />
            <circle cx="80.9" cy="-103.9" r="3" fill="#ffffff" />
          
            <line x1="0" y1="0" x2="103.5" y2="-12.9" stroke="#58c7ff" stroke-width="1" opacity="0.4" stroke-dasharray="4 4" />
            <circle cx="103.5" cy="-12.9" r="7" fill="#0d2744" stroke="#48e09a" stroke-width="2" />
            <circle cx="103.5" cy="-12.9" r="3" fill="#ffffff" />
          
            <line x1="0" y1="0" x2="64.8" y2="50.4" stroke="#58c7ff" stroke-width="1" opacity="0.4" stroke-dasharray="4 4" />
            <circle cx="64.8" cy="50.4" r="7" fill="#0d2744" stroke="#48e09a" stroke-width="2" />
            <circle cx="64.8" cy="50.4" r="3" fill="#ffffff" />
          
        
        <!-- Moisture Aerosol Floating Spheres -->
        <circle cx="-60" cy="-45" r="28" fill="url(#coreGlow)" opacity="0.6" />
        <circle cx="70" cy="40" r="36" fill="url(#coreGlow)" opacity="0.5" />
        <circle cx="-40" cy="65" r="20" fill="url(#coreGlow)" opacity="0.7" />
        <circle cx="50" cy="-60" r="22" fill="url(#coreGlow)" opacity="0.65" />
        
        <!-- Telemetry Floating Badges -->
        <g transform="translate(-100, -110)" opacity="0.85">
          <rect width="90" height="24" rx="6" fill="rgba(8,20,38,0.85)" stroke="#58c7ff" stroke-width="1" />
          <text x="45" y="16" text-anchor="middle" fill="#58c7ff" font-size="10.5" font-family="sans-serif" font-weight="bold">💧 84% HUMID</text>
        </g>
        <g transform="translate(18, 95)" opacity="0.85">
          <rect width="90" height="24" rx="6" fill="rgba(8,20,38,0.85)" stroke="#48e09a" stroke-width="1" />
          <text x="45" y="16" text-anchor="middle" fill="#48e09a" font-size="10.5" font-family="sans-serif" font-weight="bold">💨 14 km/h S</text>
        </g>
      </g>
    
    </svg>