<svg xmlns="http://www.w3.org/2000/svg" viewBox="0 0 720 1280" width="720" height="1280">
      
    <defs>
      <linearGradient id="bgGrad" x1="0%" y1="0%" x2="50%" y2="100%">
        <stop offset="0%" stop-color="hsl(205.95744680851064, 73.08510638297872%, 11.553191489361701%)" />
        <stop offset="60%" stop-color="hsl(193.1914893617021, 73.08510638297872%, 5.74468085106383%)" />
        <stop offset="100%" stop-color="#040914" />
      </linearGradient>
      <radialGradient id="satelliteGlow" cx="50%" cy="50%" r="50%">
        <stop offset="0%" stop-color="#58c7ff" stop-opacity="0.8" />
        <stop offset="60%" stop-color="#58c7ff" stop-opacity="0.15" />
        <stop offset="100%" stop-color="#58c7ff" stop-opacity="0" />
      </radialGradient>
      <radialGradient id="stormGlow" cx="50%" cy="50%" r="50%">
        <stop offset="0%" stop-color="#48e09a" stop-opacity="0.17408123791102517" />
        <stop offset="45%" stop-color="#58c7ff" stop-opacity="0.11605415860735012" />
        <stop offset="85%" stop-color="#ff5e6c" stop-opacity="0.05802707930367506" />
        <stop offset="100%" stop-color="#040914" stop-opacity="0" />
      </radialGradient>
      <radialGradient id="coreGlow" cx="50%" cy="50%" r="50%">
        <stop offset="0%" stop-color="#ffffff" stop-opacity="0.95" />
        <stop offset="25%" stop-color="#58c7ff" stop-opacity="0.85" />
        <stop offset="65%" stop-color="#145374" stop-opacity="0.4" />
        <stop offset="100%" stop-color="#040914" stop-opacity="0" />
      </radialGradient>
      <filter id="bloom" x="-30%" y="-30%" width="160%" height="160%">
        <feGaussianBlur stdDeviation="8" result="blur" />
        <feMerge>
          <feMergeNode in="blur" />
          <feMergeNode in="SourceGraphic" />
        </feMerge>
      </filter>
    </defs>
  
      <rect width="720" height="1280" fill="url(#bgGrad)" />

    <g opacity="0.13500000000000004">
      <circle cx="0.0" cy="168.5" r="1.8" fill="#c5e3f6" opacity="0.86" /><circle cx="137.5" cy="261.8" r="1.1" fill="#c5e3f6" opacity="0.78" /><circle cx="275.0" cy="355.1" r="1.1" fill="#c5e3f6" opacity="0.26" /><circle cx="412.5" cy="448.4" r="1.8" fill="#c5e3f6" opacity="-0.22" /><circle cx="550.0" cy="541.7" r="1.1" fill="#c5e3f6" opacity="-0.23" /><circle cx="687.5" cy="635.0" r="1.1" fill="#c5e3f6" opacity="0.25" /><circle cx="105.0" cy="728.3" r="1.8" fill="#c5e3f6" opacity="0.78" /><circle cx="242.5" cy="821.6" r="1.1" fill="#c5e3f6" opacity="0.86" /><circle cx="380.0" cy="914.9" r="1.1" fill="#c5e3f6" opacity="0.43" /><circle cx="517.5" cy="1008.2" r="1.8" fill="#c5e3f6" opacity="-0.12" /><circle cx="655.0" cy="1101.5" r="1.1" fill="#c5e3f6" opacity="-0.29" /><circle cx="72.5" cy="1194.8" r="1.1" fill="#c5e3f6" opacity="0.09" /><circle cx="210.0" cy="8.1" r="1.8" fill="#c5e3f6" opacity="0.66" /><circle cx="347.5" cy="101.4" r="1.1" fill="#c5e3f6" opacity="0.90" /><circle cx="485.0" cy="194.7" r="1.1" fill="#c5e3f6" opacity="0.59" /><circle cx="622.5" cy="288.0" r="1.8" fill="#c5e3f6" opacity="0.01" /><circle cx="40.0" cy="381.3" r="1.1" fill="#c5e3f6" opacity="-0.30" /><circle cx="177.5" cy="474.6" r="1.1" fill="#c5e3f6" opacity="-0.06" /><circle cx="315.0" cy="567.9" r="1.8" fill="#c5e3f6" opacity="0.51" /><circle cx="452.5" cy="661.2" r="1.1" fill="#c5e3f6" opacity="0.89" /><circle cx="590.0" cy="754.5" r="1.1" fill="#c5e3f6" opacity="0.72" /><circle cx="7.5" cy="847.8" r="1.8" fill="#c5e3f6" opacity="0.17" /><circle cx="145.0" cy="941.1" r="1.1" fill="#c5e3f6" opacity="-0.26" /><circle cx="282.5" cy="1034.4" r="1.1" fill="#c5e3f6" opacity="-0.18" />
    </g>
  

      <g opacity="0.58" transform="translate(360, 563.2) scale(2.2)">
        <!-- Telemetry Data Grid Nodes -->
        
            <line x1="0" y1="0" x2="-23.8" y2="76.4" stroke="#58c7ff" stroke-width="1" opacity="0.4" stroke-dasharray="4 4" />
            <circle cx="-23.8" cy="76.4" r="7" fill="#0d2744" stroke="#48e09a" stroke-width="2" />
            <circle cx="-23.8" cy="76.4" r="3" fill="#ffffff" />
          
            <line x1="0" y1="0" x2="-82.3" y2="43.3" stroke="#58c7ff" stroke-width="1" opacity="0.4" stroke-dasharray="4 4" />
            <circle cx="-82.3" cy="43.3" r="7" fill="#0d2744" stroke="#48e09a" stroke-width="2" />
            <circle cx="-82.3" cy="43.3" r="3" fill="#ffffff" />
          
            <line x1="0" y1="0" x2="-116.1" y2="-36.1" stroke="#58c7ff" stroke-width="1" opacity="0.4" stroke-dasharray="4 4" />
            <circle cx="-116.1" cy="-36.1" r="7" fill="#0d2744" stroke="#48e09a" stroke-width="2" />
            <circle cx="-116.1" cy="-36.1" r="3" fill="#ffffff" />
          
            <line x1="0" y1="0" x2="-64.9" y2="-123.5" stroke="#58c7ff" stroke-width="1" opacity="0.4" stroke-dasharray="4 4" />
            <circle cx="-64.9" cy="-123.5" r="7" fill="#0d2744" stroke="#48e09a" stroke-width="2" />
            <circle cx="-64.9" cy="-123.5" r="3" fill="#ffffff" />
          
            <line x1="0" y1="0" x2="38.7" y2="-124.4" stroke="#58c7ff" stroke-width="1" opacity="0.4" stroke-dasharray="4 4" />
            <circle cx="38.7" cy="-124.4" r="7" fill="#0d2744" stroke="#48e09a" stroke-width="2" />
            <circle cx="38.7" cy="-124.4" r="3" fill="#ffffff" />
          
            <line x1="0" y1="0" x2="90.6" y2="-47.6" stroke="#58c7ff" stroke-width="1" opacity="0.4" stroke-dasharray="4 4" />
            <circle cx="90.6" cy="-47.6" r="7" fill="#0d2744" stroke="#48e09a" stroke-width="2" />
            <circle cx="90.6" cy="-47.6" r="3" fill="#ffffff" />
          
            <line x1="0" y1="0" x2="77.8" y2="24.2" stroke="#58c7ff" stroke-width="1" opacity="0.4" stroke-dasharray="4 4" />
            <circle cx="77.8" cy="24.2" r="7" fill="#0d2744" stroke="#48e09a" stroke-width="2" />
            <circle cx="77.8" cy="24.2" r="3" fill="#ffffff" />
          
            <line x1="0" y1="0" x2="40.4" y2="76.8" stroke="#58c7ff" stroke-width="1" opacity="0.4" stroke-dasharray="4 4" />
            <circle cx="40.4" cy="76.8" r="7" fill="#0d2744" stroke="#48e09a" stroke-width="2" />
            <circle cx="40.4" cy="76.8" r="3" fill="#ffffff" />
          
        
        <!-- Moisture Aerosol Floating Spheres -->
        <circle cx="-60" cy="-45" r="28" fill="url(#coreGlow)" opacity="0.6" />
        <circle cx="70" cy="40" r="36" fill="url(#coreGlow)" opacity="0.5" />
        <circle cx="-40" cy="65" r="20" fill="url(#coreGlow)" opacity="0.7" />
        <circle cx="50" cy="-60" r="22" fill="url(#coreGlow)" opacity="0.65" />
        
        <!-- Telemetry Floating Badges -->
        <g transform="translate(-100, -110)" opacity="0.85">
          <rect width="90" height="24" rx="6" fill="rgba(8,20,38,0.85)" stroke="#58c7ff" stroke-width="1" />
          <text x="45" y="16" text-anchor="middle" fill="#58c7ff" font-size="10.5" font-family="sans-serif" font-weight="bold">💧 84% HUMID</text>
        </g>
        <g transform="translate(18, 95)" opacity="0.85">
          <rect width="90" height="24" rx="6" fill="rgba(8,20,38,0.85)" stroke="#48e09a" stroke-width="1" />
          <text x="45" y="16" text-anchor="middle" fill="#48e09a" font-size="10.5" font-family="sans-serif" font-weight="bold">💨 14 km/h S</text>
        </g>
      </g>
    

      <g opacity="0.99" transform="translate(360, 563.2) scale(0.9609229176110445)">
        <!-- Giant Radiant Orb Aura -->
        <circle cx="0" cy="0" r="160" fill="url(#coreGlow)" />
        
        <!-- Rotating Gyroscope Rings -->
        <ellipse cx="0" cy="0" rx="140" ry="46" fill="none" stroke="#58c7ff" stroke-width="3" transform="rotate(224.68085106382978)" opacity="0.85" filter="url(#bloom)" />
        <ellipse cx="0" cy="0" rx="130" ry="52" fill="none" stroke="#48e09a" stroke-width="2.5" transform="rotate(-280.8510638297872)" opacity="0.8" />
        <ellipse cx="0" cy="0" rx="110" ry="110" fill="none" stroke="rgba(255,255,255,0.4)" stroke-width="1.5" stroke-dasharray="10 6" />
        
        <!-- Central Glassmorphic Hologram Orb -->
        <circle cx="0" cy="0" r="75" fill="#081c33" stroke="#58c7ff" stroke-width="3" />
        <circle cx="-20" cy="-25" r="24" fill="rgba(255,255,255,0.25)" opacity="0.7" />
        
        <!-- WeatherGPT Emblem & Live Pulse -->
        <text x="0" y="-12" text-anchor="middle" font-size="34" font-family="sans-serif">🌦️</text>
        <text x="0" y="24" text-anchor="middle" fill="#ffffff" font-size="15" font-family="sans-serif" font-weight="800" letter-spacing="0.08em">WeatherGPT</text>
        <text x="0" y="42" text-anchor="middle" fill="#48e09a" font-size="11" font-family="sans-serif" font-weight="700">SIH26068 • AI ENGINE</text>
        
        <!-- Orbiting Satellite Node around Product -->
        <g transform="rotate(224.68085106382978) translate(140, 0)">
          <circle cx="0" cy="0" r="7" fill="#ffd166" filter="url(#bloom)" />
          <circle cx="0" cy="0" r="12" fill="none" stroke="#ffd166" stroke-width="1" opacity="0.6" />
        </g>
      </g>
    
    </svg>